HIERARCHY
ROOT Hips
{
  OFFSET -102.467 93.6631 130.069
  CHANNELS 6 Xposition Yposition Zposition Zrotation Xrotation Yrotation
  JOINT LeftUpLeg
  {
    OFFSET 8.64259 1.95398 -2.38835
    CHANNELS 3 Zrotation Xrotation Yrotation
    JOINT LeftLeg
    {
      OFFSET 43.7702 0 0
      CHANNELS 3 Zrotation Xrotation Yrotation
      JOINT LeftFoot
      {
        OFFSET 40.6238 0 0
        CHANNELS 3 Zrotation Xrotation Yrotation
        JOINT LeftToeBase
        {
          OFFSET 12.7242 0 0
          CHANNELS 3 Zrotation Xrotation Yrotation
          End Site
          {
            OFFSET 0 0 0
          }
        }
      }
    }
  }
  JOINT RightUpLeg
  {
    OFFSET -8.2249 1.95398 -2.59336
    CHANNELS 3 Zrotation Xrotation Yrotation
    JOINT RightLeg
    {
      OFFSET 43.5653 0 0
      CHANNELS 3 Zrotation Xrotation Yrotation
      JOINT RightFoot
      {
        OFFSET 40.6238 0 0
        CHANNELS 3 Zrotation Xrotation Yrotation
        JOINT RightToeBase
        {
          OFFSET 12.7242 0 0
          CHANNELS 3 Zrotation Xrotation Yrotation
          End Site
          {
            OFFSET 0 0 0
          }
        }
      }
    }
  }
  JOINT Spine
  {
    OFFSET 0.165834 0.87714 6.61349
    CHANNELS 3 Zrotation Xrotation Yrotation
    JOINT Spine1
    {
      OFFSET 7.38963 1.71661e-005 0
      CHANNELS 3 Zrotation Xrotation Yrotation
      JOINT Spine2
      {
        OFFSET 11.9445 1.14441e-005 0
        CHANNELS 3 Zrotation Xrotation Yrotation
        JOINT Spine3
        {
          OFFSET 14.7254 4.19617e-005 0
          CHANNELS 3 Zrotation Xrotation Yrotation
          JOINT Spine4
          {
            OFFSET 10.9679 0 0
            CHANNELS 3 Zrotation Xrotation Yrotation
            JOINT RightShoulder
            {
              OFFSET 2.46616 -1.6653 3.69651
              CHANNELS 3 Zrotation Xrotation Yrotation
              JOINT RightArm
              {
                OFFSET 13.0012 0 0
                CHANNELS 3 Zrotation Xrotation Yrotation
                JOINT RightForeArm
                {
                  OFFSET 28.7848 1.52588e-005 0
                  CHANNELS 3 Zrotation Xrotation Yrotation
                  JOINT RightHand
                  {
                    OFFSET 26.5688 1.52588e-005 0
                    CHANNELS 3 Zrotation Xrotation Yrotation
                    End Site
                    {
                      OFFSET 0 0 0
                    }
                  }
                }
              }
            }
            JOINT LeftShoulder
            {
              OFFSET 2.38034 -1.29275 -3.7523
              CHANNELS 3 Zrotation Xrotation Yrotation
              JOINT LeftArm
              {
                OFFSET 16.3182 6.10351e-005 0
                CHANNELS 3 Zrotation Xrotation Yrotation
                JOINT LeftForeArm
                {
                  OFFSET 27.0901 0 0
                  CHANNELS 3 Zrotation Xrotation Yrotation
                  JOINT LeftHand
                  {
                    OFFSET 24.5451 1.52588e-005 0
                    CHANNELS 3 Zrotation Xrotation Yrotation
                    End Site
                    {
                      OFFSET 0 0 0
                    }
                  }
                }
              }
            }
            JOINT Neck
            {
              OFFSET 5.0226 -0.0266342 0
              CHANNELS 3 Zrotation Xrotation Yrotation
              JOINT Head
              {
                OFFSET 6.69363 2.86102e-005 0
                CHANNELS 3 Zrotation Xrotation Yrotation
                End Site
                {
                  OFFSET 0 0 0
                }
              }
            }
          }
        }
      }
    }
  }
}
MOTION
Frames:	10
Frame Time:	0.0416667
206.238 35.0122 -206.062 -124.84 -45.8104 -115.626 -102.731 75.1267 25.9782 -153.371 19.2211 2.77744 35.4602 -10.7649 47.3035 103.638 -19.2998 -9.81455 -112.358 71.848 -5.09409 -152.205 -29.7728 -2.6293 52.2585 9.87556 11.0156 66.0431 2.77507 23.4706 0.493232 12.8411 -90.6716 1.19362 0.72984 -1.28408 -10.4778 0.672613 -1.31496 -33.0112 1.082 -1.0054 -12.9985 1.08199 -1.00542 98.9309 -35.363 -88.3029 8.69883 -35.8543 -51.4165 -50.7087 5.03401 -77.242 -13.7305 -2.14548 13.1862 -87.4987 -36.0962 79.4429 -7.47867 22.6747 -64.4789 12.6026 3.40716 -60.4621 5.28382 0.264907 0.938096 16.8969 0.89295 -1.89537 -1.2061 1.58893 7.37004 
206.245 35.0394 -206.057 -124.938 -45.89 -115.72 -102.78 75.2043 25.9417 -153.548 19.1895 2.76033 36.5684 -9.58957 46.2354 101.623 -18.7347 -10.0918 -112.602 72.2967 -4.99579 -152.206 -30.007 -2.63992 51.963 9.64316 9.84942 67.0671 2.71502 23.4105 0.472604 12.8078 -90.6299 1.26019 0.7042 -1.20451 -10.4111 0.650506 -1.23433 -32.9449 1.03365 -0.937199 -12.9322 1.03364 -0.937213 98.8676 -35.9804 -88.3672 8.41088 -36.2399 -51.1935 -50.3915 5.38327 -77.4783 -13.5461 -2.21335 14.0184 -87.3052 -35.3292 79.6093 -8.06248 23.0515 -63.9342 13.4456 3.73822 -60.5932 5.75709 0.241747 0.335859 16.9011 0.513163 -4.94564 -1.52831 2.14279 10.548 
206.49 35.4151 -206.285 -125.495 -46.0295 -115.818 -109.602 78.0961 33.1282 -154.705 20.5187 2.59766 48.9601 0.368228 33.3781 86.0227 -7.76445 0.818237 -115.906 71.6734 -1.71368 -151.474 -28.8635 -2.70117 52.6838 10.4142 13.1613 66.2191 2.9386 23.7896 0.472756 12.8407 -90.6855 1.1943 0.683688 -1.31255 -10.4772 0.625266 -1.34137 -33.0101 1.04653 -1.04645 -12.9974 1.04654 -1.04644 98.8121 -36.0382 -88.4662 8.61793 -36.1183 -50.8847 -49.7705 5.40248 -77.4862 -14.3382 -2.25994 13.2798 -87.3344 -35.3313 79.5572 -7.70271 23.324 -64.1167 15.7469 5.15819 -60.4938 7.78477 0.217838 -0.920261 16.4767 0.596987 -4.12576 -1.00539 1.99452 9.52347 
206.557 35.5398 -206.368 -125.553 -46.1015 -115.766 -116.987 79.6052 40.9855 -155.073 21.9276 2.55059 55.2496 4.25297 27.0813 77.9063 -0.0807463 11.2412 -116.704 72.1616 -1.02096 -151.27 -28.9567 -2.74189 52.4999 10.4516 12.8697 66.326 2.50519 22.961 0.459479 12.8493 -90.6887 1.17692 0.656163 -1.31966 -10.4946 0.597455 -1.34726 -33.0273 1.02241 -1.06148 -13.0146 1.02242 -1.06148 98.6918 -36.1493 -88.6819 8.9819 -35.9091 -50.578 -48.2792 5.651 -77.6229 -15.0134 -2.20922 12.0601 -87.1665 -35.3979 79.8753 -7.77493 23.276 -64.2952 15.6065 5.07067 -60.6193 6.79754 0.250844 -0.0843746 16.8961 0.592254 -4.12565 -1.55853 1.95526 9.36446 
206.595 35.6453 -206.323 -124.924 -45.7926 -115.474 -115.424 79.1155 39.8075 -154.934 21.0649 2.65636 55.2758 4.27701 26.8221 78.7364 -0.89206 9.94759 -115.164 72.0355 -2.16346 -151.133 -29.0119 -2.68064 52.4073 10.3282 12.523 64.8827 2.93648 23.7261 0.496523 12.8473 -90.655 1.18124 0.74275 -1.25104 -10.4901 0.686982 -1.28252 -33.0238 1.08438 -0.970015 -13.0111 1.08439 -0.970007 98.8336 -36.0391 -88.4261 8.7578 -35.9845 -50.9461 -49.3875 5.7361 -77.5269 -13.5688 -2.01547 12.2942 -87.2246 -35.1677 79.7167 -7.9991 23.1407 -64.2621 15.6061 4.94202 -60.5698 6.58021 0.137398 -1.45901 17.5044 0.488734 -4.36607 -2.12918 1.90475 9.65198 
206.56 35.6184 -206.329 -125.111 -45.7627 -115.59 -116.815 79.293 41.2799 -155.052 21.7973 2.61519 55.3129 4.22698 27.0047 77.9809 -0.439006 10.7357 -116.341 71.0139 -1.04543 -151.094 -28.1629 -2.68153 53.7267 10.7753 15.481 62.0953 2.71947 23.1177 0.452794 12.843 -90.6214 1.18958 0.668082 -1.18822 -10.4818 0.615166 -1.21649 -33.0154 0.994302 -0.932534 -13.0027 0.994309 -0.932538 98.5871 -36.2634 -88.8673 8.82058 -36.0328 -50.684 -47.9352 5.82496 -77.5939 -15.1242 -2.15285 11.4901 -87.0017 -35.4198 80.1766 -7.67247 23.3175 -64.0459 15.3278 4.7085 -60.7691 7.13761 0.215049 -0.709127 16.8302 0.61738 -4.24595 -1.82276 1.98804 9.26375 
206.548 35.591 -206.278 -125.364 -45.9571 -115.805 -119.007 79.8456 43.052 -155.183 21.2683 2.54407 56.0579 4.38684 25.4415 77.1674 -0.963723 9.70756 -117.901 69.7502 0.138514 -151.045 -27.8924 -2.67148 54.9778 11.2378 17.9332 57.7869 2.63297 22.624 0.436189 12.8427 -90.6341 1.19018 0.630207 -1.21442 -10.4812 0.576148 -1.24099 -33.0145 0.966039 -0.968916 -13.0018 0.966046 -0.968905 98.7674 -36.1048 -88.5443 8.85394 -36.2297 -50.7634 -47.5916 5.7241 -77.6807 -15.9571 -2.33881 11.9581 -87.1067 -35.0408 79.9003 -7.98802 23.3255 -63.8919 15.6343 4.87019 -60.8584 7.4888 0.2713 -0.177891 16.2425 0.57749 -4.3971 -1.58477 1.99543 9.51854 
206.427 35.5509 -206.211 -124.8 -45.6669 -115.293 -122.763 81.1635 47.1273 -155.39 21.2655 2.48885 56.6475 3.90129 22.9889 76.0653 -1.3762 8.82637 -117.41 69.216 0.146205 -151.011 -27.5255 -2.63002 55.1977 11.6919 19.4079 55.627 3.16152 23.7425 0.468699 12.8082 -90.6176 1.25931 0.700972 -1.18059 -10.412 0.648329 -1.2103 -32.9458 1.02336 -0.915367 -12.9332 1.02336 -0.915376 98.5705 -36.0924 -88.9153 9.20233 -36.0933 -50.2418 -46.608 5.66233 -77.7931 -17.3853 -2.5443 11.8665 -87.1516 -35.2337 79.8636 -7.73081 23.3442 -63.8956 15.459 4.75437 -60.8377 7.39942 0.294579 0.132719 15.6524 0.539572 -4.59969 -1.11094 2.0432 9.97082 
206.322 35.6557 -206.002 -124.137 -45.4683 -114.998 -126.516 81.5365 51.0545 -155.376 21.3113 2.47829 57.346 3.81797 21.2233 75.6956 -1.58732 8.38274 -117.561 67.9783 0.39341 -150.868 -27.2137 -2.56439 56.159 12.144 21.5719 53.4719 3.08634 23.4124 0.509727 12.7559 -90.6404 1.36422 0.773755 -1.22399 -10.3071 0.71916 -1.25686 -32.8411 1.10585 -0.93488 -12.8285 1.10583 -0.934888 98.6035 -35.5649 -88.9044 10.0768 -36.2168 -49.5567 -47.93 5.52686 -77.6565 -16.9013 -2.45115 11.7336 -87.713 -35.9645 79.0293 -7.36708 23.0564 -63.8483 14.55 4.21591 -60.769 6.95456 0.18712 -0.967278 14.3155 0.714598 -2.80543 -0.0841076 1.72271 8.36733 
206.246 35.7177 -205.842 -123.587 -45.2727 -114.404 -137.701 82.7368 62.2688 -155.598 22.0688 2.33993 58.6643 3.63896 18.3926 74.0505 -1.18989 9.01561 -117.092 68.0757 0.218561 -150.714 -28.0538 -2.5621 55.4496 12.4405 21.2176 53.7362 3.2142 23.7407 0.533008 12.7435 -90.6306 1.38934 0.823742 -1.20353 -10.2819 0.769987 -1.23861 -32.8164 1.14737 -0.900339 -12.8038 1.14736 -0.900344 98.5148 -35.7492 -89.0537 9.91145 -36.291 -49.777 -47.4566 5.72524 -77.6472 -16.8403 -2.40407 11.4593 -87.2819 -35.4322 79.6752 -8.14777 23.2184 -64.1011 14.1193 4.01173 -60.7465 7.04026 0.157109 -1.36755 14.734 0.628747 -3.92925 -0.502102 1.97123 10.0622 
